<svg width="73" height="64" viewBox="0 0 73 64" fill="none" xmlns="http://www.w3.org/2000/svg">
<path d="M29.0707 21.6713C29.7695 21.2586 30.6327 20.8896 31.6286 20.604L31.6286 27.396C30.6327 27.1104 29.7695 26.7414 29.0707 26.3287C27.427 25.3577 27.1143 24.4556 27.1143 24C27.1143 23.5444 27.427 22.6423 29.0707 21.6713Z" fill="white"/>
<path d="M40.6572 43.396L40.6572 36.604C41.6531 36.8896 42.5163 37.2586 43.2151 37.6714C44.8588 38.6423 45.1715 39.5444 45.1715 40C45.1715 40.4556 44.8588 41.3577 43.2151 42.3287C42.5163 42.7414 41.6531 43.1104 40.6572 43.396Z" fill="white"/>
<path fill-rule="evenodd" clip-rule="evenodd" d="M36.1428 64C56.0882 64 72.2571 49.6731 72.2571 32C72.2571 14.3269 56.0882 0 36.1428 0C16.1975 0 0.0285645 14.3269 0.0285645 32C0.0285645 49.6731 16.1975 64 36.1428 64ZM40.6571 12C40.6571 9.79086 38.636 8 36.1428 8C33.6497 8 31.6286 9.79086 31.6286 12V12.368C28.8225 12.8349 26.2271 13.7363 24.0625 15.0149C20.8047 16.9394 18.0857 20.0373 18.0857 24C18.0857 27.9627 20.8047 31.0606 24.0625 32.9851C26.2271 34.2637 28.8225 35.1651 31.6286 35.632L31.6286 43.397C29.8636 42.8892 28.5551 42.1276 27.8215 41.3785C26.1876 39.7099 23.3364 39.531 21.4533 40.9788C19.5702 42.4266 19.3683 44.9529 21.0022 46.6215C23.5415 49.2145 27.3831 50.9234 31.6286 51.6305L31.6286 51.9999C31.6285 54.2091 33.6496 56 36.1428 56C38.6359 56 40.6571 54.2092 40.6571 52.0001L40.6571 51.632C43.4632 51.1651 46.0587 50.2637 48.2233 48.9851C51.4811 47.0606 54.2001 43.9627 54.2001 40C54.2001 36.0373 51.4811 32.9394 48.2232 31.0149C46.0586 29.7363 43.4632 28.8349 40.6572 28.368L40.6571 20.603C42.4222 21.1108 43.7307 21.8724 44.4643 22.6215C46.0982 24.2901 48.9494 24.469 50.8325 23.0212C52.7156 21.5734 52.9175 19.0471 51.2836 17.3785C48.7443 14.7855 44.9026 13.0766 40.6571 12.3694V12Z" fill="white"/>
</svg>
