<svg width="30" height="28" viewBox="0 0 30 28" fill="none" xmlns="http://www.w3.org/2000/svg">
<path fill-rule="evenodd" clip-rule="evenodd" d="M6 3.5C4.34315 3.5 3 4.84315 3 6.5V21.5C3 23.1569 4.34315 24.5 6 24.5H12C13.6569 24.5 15 23.1569 15 21.5V20C15 19.1716 15.6716 18.5 16.5 18.5C17.3284 18.5 18 19.1716 18 20V21.5C18 24.8137 15.3137 27.5 12 27.5H6C2.68629 27.5 0 24.8137 0 21.5V6.5C0 3.18629 2.68629 0.5 6 0.5H12C15.3137 0.5 18 3.18629 18 6.5V8C18 8.82843 17.3284 9.5 16.5 9.5C15.6716 9.5 15 8.82843 15 8V6.5C15 4.84315 13.6569 3.5 12 3.5H6ZM21.4393 6.93934C22.0251 6.35355 22.9749 6.35355 23.5607 6.93934L29.5607 12.9393C30.1464 13.5251 30.1464 14.4749 29.5607 15.0607L23.5607 21.0607C22.9749 21.6464 22.0251 21.6464 21.4393 21.0607C20.8536 20.4749 20.8536 19.5251 21.4393 18.9393L24.8787 15.5L7.5 15.5C6.67157 15.5 6 14.8284 6 14C6 13.1716 6.67157 12.5 7.5 12.5L24.8787 12.5L21.4393 9.06066C20.8536 8.47487 20.8536 7.52513 21.4393 6.93934Z" fill="#002959"/>
</svg>
